<svg id="Layer_3" data-name="Layer 3" xmlns="http://www.w3.org/2000/svg" viewBox="0 0 475.48 542.23"><defs><style>.cls-1{fill:#fff;stroke:#fff;stroke-miterlimit:10;stroke-width:4px;}</style></defs><path class="cls-1" d="M417.94,251.89a20,20,0,0,1-14.14-34.14l54.48-54.48L348.93,76.12a79.12,79.12,0,0,0-98.61,123.75,20,20,0,1,1-24.93,31.28A119.12,119.12,0,1,1,373.86,44.84l144.37,115L432.08,246A19.9,19.9,0,0,1,417.94,251.89Z" transform="translate(-45.75 -16.93)"/><path class="cls-1" d="M379.92,171.41a22.36,22.36,0,1,1-24.73-19.71A22.36,22.36,0,0,1,379.92,171.41Z" transform="translate(-45.75 -16.93)"/><path class="cls-1" d="M297.28,557.16a139.73,139.73,0,0,1-87.46-30.72L55.28,403.29a20,20,0,0,1,12.86-35.63c.25,0,31.67.17,75.23-16.3C201.69,329.31,253,289.46,296,232.93a20,20,0,0,1,31.85,24.19C267.92,336,201,372.68,155.39,389.57a317.1,317.1,0,0,1-38.59,11.6l118,94A100.74,100.74,0,1,0,360.31,337.6a20,20,0,0,1,24.92-31.29,140.77,140.77,0,0,1-71.89,249.94A142.26,142.26,0,0,1,297.28,557.16Z" transform="translate(-45.75 -16.93)"/></svg>