<?xml version="1.0" encoding="utf-8"?>
<!-- Generator: Adobe Illustrator 24.1.2, SVG Export Plug-In . SVG Version: 6.00 Build 0)  -->
<svg version="1.1" id="Layer_3" xmlns="http://www.w3.org/2000/svg" xmlns:xlink="http://www.w3.org/1999/xlink" x="0px" y="0px"
	 viewBox="0 0 576 576" style="enable-background:new 0 0 576 576;" xml:space="preserve">
<style type="text/css">
	.st0{fill:#FFFFFF;}
</style>
<circle cx="288" cy="288" r="282.9"/>
<g>
	<path class="st0" d="M227.2,90.7c-16.5,20.8-24,46.8-21,73.1c3,26.4,16.1,50,36.8,66.5c2.3,1.8,4.5,2.2,6.1,2.2
		c3.1,0,6-1.4,7.9-3.8c1.6-2.1,2.3-4.6,2.1-7.2s-1.6-5.1-3.7-6.7c-16.6-13.2-27-32.1-29.4-53.3s3.5-41.9,16.8-58.5
		c15.2-19,37.9-30,62.4-30l0,0c17.9,0,35.5,6.1,49.5,17.3l98.7,78.6l7.1,5.7l-6.4,6.4l-49.2,49.2c-1.9,1.9-2.9,4.3-2.9,7
		c0,2.6,1,5.1,2.9,7c1.9,1.9,4.4,3,6.9,3c2.6,0,5.1-1.1,7-3l71.4-71.3L366.9,74.9c-17.8-14.2-39.2-21.7-61.8-21.7l0,0
		C274.6,53.3,246.2,67,227.2,90.7z"/>
	<path class="st0" d="M357.4,173.1c-0.5,0-0.9,0-1.4,0.1c-3.2,0.4-6.1,2-8.1,4.4c-2,2.5-2.9,5.7-2.5,8.8c0.7,6.1,5.8,10.7,11.9,10.7
		c0.5,0,0.9,0,1.4-0.1c3.2-0.4,6.1-2,8.1-4.4c2-2.5,2.9-5.7,2.5-8.8C368.6,177.7,363.5,173.1,357.4,173.1"/>
	<path class="st0" d="M396.2,478c19.8-24.8,28.7-56,25.2-87.5c-3.6-31.6-19.3-59.9-44.1-79.7c-2.3-1.8-4.5-2.2-6.1-2.2
		c-3.1,0-6,1.4-7.9,3.8c-1.6,2.1-2.3,4.6-2.1,7.2c0.3,2.6,1.6,5.1,3.7,6.7c20.7,16.5,33.7,40.1,36.6,66.3
		c3.1,26.2-4.4,52.1-20.9,72.8c-16.6,20.7-40.2,33.8-66.3,36.6c-3.8,0.5-7.7,0.6-11.5,0.6c-22.4,0-43.7-7.5-61.4-21.6l-106.5-84.8
		L121.8,386l16.3-3.8c11.5-2.7,22.8-6.1,33.8-10.2c40.1-14.9,99.1-47.2,151.9-116.9c1.6-2.2,2.3-4.7,2-7.3c-0.4-2.6-1.7-5-3.8-6.6
		c-1.7-1.4-3.8-2.1-6-2.1c-3.2,0-6,1.4-7.9,3.9c-39.7,52.3-87.3,89.2-141.3,109.7c-39.1,14.8-67.6,15.3-70.7,15.3h-0.1H96H96
		c-0.1,0-0.2,0-0.3,0c-4.2,0-7.9,2.6-9.3,6.5v0.1v0.1c-1.4,3.9-0.2,8.4,3.2,11L229,496.8c21.3,17,46.8,25.9,73.9,25.9
		c4.5,0,9.1-0.3,13.6-0.7C348,518.5,376.4,502.9,396.2,478z"/>
</g>
</svg>
