<?xml version="1.0" encoding="utf-8"?>
<!-- Generator: Adobe Illustrator 24.1.2, SVG Export Plug-In . SVG Version: 6.00 Build 0)  -->
<svg version="1.1" id="Layer_3" xmlns="http://www.w3.org/2000/svg" xmlns:xlink="http://www.w3.org/1999/xlink" x="0px" y="0px"
	 viewBox="0 0 576 576" style="enable-background:new 0 0 576 576;" xml:space="preserve">
<style type="text/css">
	.st0{fill:#FFFFFF;}
</style>
<g>
	<path class="st0" d="M213.5,69.4c-18.3,23-26.6,51.8-23.3,81c3.3,29.3,17.8,55.4,40.8,73.7c2.5,2,5,2.4,6.8,2.4
		c3.4,0,6.6-1.5,8.7-4.2c1.8-2.3,2.6-5.1,2.3-8c-0.3-2.9-1.8-5.6-4.1-7.4c-18.4-14.6-29.9-35.6-32.6-59
		c-2.7-23.4,3.9-46.4,18.6-64.8c16.8-21.1,42-33.2,69.1-33.2c0,0,0,0,0,0c19.8,0,39.3,6.8,54.8,19.2l109.4,87.1l7.9,6.3l-7.1,7.1
		l-54.5,54.5c-2.1,2.1-3.2,4.8-3.2,7.8c0,2.9,1.1,5.7,3.2,7.8c2.1,2.1,4.9,3.3,7.7,3.3c2.9,0,5.7-1.2,7.8-3.3l79.1-79L368.3,51.9
		c-19.7-15.7-43.4-24-68.5-24h0C266,27.9,234.6,43.1,213.5,69.4z"/>
	<path class="st0" d="M357.8,160.6c-0.5,0-1,0-1.6,0.1c-3.6,0.4-6.8,2.2-9,4.9c-2.2,2.8-3.2,6.3-2.8,9.8c0.8,6.8,6.4,11.9,13.2,11.9
		c0.5,0,1,0,1.6-0.1c3.6-0.4,6.8-2.2,9-4.9c2.2-2.8,3.2-6.3,2.8-9.8C370.2,165.7,364.5,160.6,357.8,160.6"/>
	<path class="st0" d="M400.7,498.5c21.9-27.5,31.8-62,27.9-96.9c-4-35-21.4-66.4-48.9-88.3c-2.5-2-5-2.4-6.8-2.4
		c-3.4,0-6.6,1.5-8.7,4.2c-1.8,2.3-2.6,5.1-2.3,8c0.3,2.9,1.8,5.6,4.1,7.4c22.9,18.3,37.3,44.4,40.6,73.5c3.4,29-4.9,57.7-23.2,80.7
		c-18.4,22.9-44.5,37.4-73.5,40.6c-4.2,0.5-8.5,0.7-12.7,0.7c-24.8,0-48.4-8.3-68-23.9l-118-94l-14.5-11.6l18.1-4.2
		c12.7-3,25.3-6.8,37.5-11.3c44.4-16.5,109.8-52.3,168.3-129.5c1.8-2.4,2.6-5.2,2.2-8.1c-0.4-2.9-1.9-5.5-4.2-7.3
		c-1.9-1.5-4.2-2.3-6.6-2.3c-3.5,0-6.6,1.6-8.7,4.3c-44,57.9-96.7,98.8-156.6,121.5c-43.3,16.4-74.9,16.9-78.3,16.9l-0.1,0l-0.1,0
		l-0.1,0c-0.1,0-0.2,0-0.3,0c-4.6,0-8.7,2.9-10.3,7.2l0,0.1l0,0.1c-1.6,4.3-0.2,9.3,3.5,12.2l154.5,123.2
		c23.6,18.8,51.9,28.7,81.9,28.7c5,0,10.1-0.3,15.1-0.8C347.4,543.3,378.8,526,400.7,498.5z"/>
</g>
</svg>
