<?xml version="1.0" encoding="utf-8"?>
<!-- Generator: Adobe Illustrator 24.1.2, SVG Export Plug-In . SVG Version: 6.00 Build 0)  -->
<svg version="1.1" id="Layer_3" xmlns="http://www.w3.org/2000/svg" xmlns:xlink="http://www.w3.org/1999/xlink" x="0px" y="0px"
	 viewBox="0 0 576 576" style="enable-background:new 0 0 576 576;" xml:space="preserve">
<style type="text/css">
	.st0{fill:#FFFFFF;}
</style>
<g>
	<path class="st0" d="M214.3,48.9c-20,25.2-29.1,56.7-25.5,88.6c3.6,32,19.5,60.6,44.6,80.6c2.8,2.2,5.5,2.7,7.4,2.7
		c3.8,0,7.3-1.7,9.6-4.6c1.9-2.5,2.8-5.6,2.5-8.7c-0.2-3.2-1.9-6.2-4.5-8.1c-20.1-16-32.7-38.9-35.6-64.6
		c-2.9-25.7,4.2-50.8,20.4-70.9c18.4-23,45.9-36.4,75.6-36.4l0,0c21.7,0,43,7.4,60,21l119.6,95.3l8.6,6.9l-7.8,7.8L429.7,218
		c-2.3,2.3-3.5,5.2-3.5,8.5c0,3.2,1.2,6.2,3.5,8.5c2.3,2.3,5.3,3.6,8.4,3.6c3.2,0,6.2-1.3,8.5-3.6l86.5-86.4L383.6,29.8
		C362,12.6,336.1,3.5,308.7,3.5l0,0C271.7,3.6,237.3,20.2,214.3,48.9z"/>
	<path class="st0" d="M372.1,148.8c-0.6,0-1.1,0-1.7,0.1c-3.9,0.5-7.4,2.4-9.8,5.3c-2.4,3-3.5,6.9-3,10.7c0.8,7.4,7,13,14.4,13
		c0.6,0,1.1,0,1.7-0.1c3.9-0.5,7.4-2.4,9.8-5.3c2.4-3,3.5-6.9,3-10.7C385.7,154.4,379.5,148.8,372.1,148.8"/>
	<path class="st0" d="M419.1,518.3c24-30.1,34.8-67.9,30.5-106c-4.4-38.3-23.4-72.6-53.4-96.6c-2.8-2.2-5.5-2.7-7.4-2.7
		c-3.8,0-7.3,1.7-9.6,4.6c-1.9,2.5-2.8,5.6-2.5,8.7c0.4,3.2,1.9,6.2,4.5,8.1c25.1,20,40.8,48.6,44.4,80.4
		c3.8,31.8-5.3,63.1-25.3,88.2c-20.1,25.1-48.7,41-80.4,44.4c-4.6,0.6-9.3,0.7-13.9,0.7c-27.1,0-53-9.1-74.4-26.2L102.4,419.2
		l-15.9-12.4l19.8-4.6c13.9-3.3,27.6-7.4,41-12.4c48.6-18.1,120.1-57.2,184.1-141.7c1.9-2.7,2.8-5.7,2.4-8.8c-0.5-3.2-2.1-6.1-4.6-8
		c-2.1-1.7-4.6-2.5-7.3-2.5c-3.9,0-7.3,1.7-9.6,4.7c-48.1,63.4-105.8,108.1-171.2,132.9C93.7,384.4,59.2,385,55.4,385h-0.1h0l0,0
		c-0.1,0-0.2,0-0.4,0c-5.1,0-9.6,3.2-11.3,7.9v0.1v0.1c-1.7,4.7-0.2,10.2,3.9,13.3l168.9,134.6c25.8,20.6,56.7,31.4,89.6,31.4
		c5.5,0,11-0.4,16.5-0.8C360.7,567.4,395.1,548.5,419.1,518.3z"/>
</g>
</svg>
